<svg data-v-2206edac="" xmlns="http://www.w3.org/2000/svg" fill="rgba(25, 34, 42, .7)" preserveAspectRatio="xMidYMid meet" width="18" height="18" viewBox="0 0 24 24"><path d="M15.8447 8.49L11.9947 13.69L8.16468 8.49C7.96468 8.22 7.68468 8.05 7.36468 8.01C7.04468 7.97 6.73468 8.05 6.47468 8.26C5.94468 8.68 5.84468 9.47 6.24468 10.01L11.0347 16.51C11.2647 16.82 11.6247 17 11.9947 17C12.3647 17 12.7247 16.82 12.9547 16.51L17.7547 10.01C17.9147 9.79 18.0047 9.53 18.0047 9.25C18.0047 8.86 17.8347 8.5 17.5347 8.26C17.2747 8.06 16.9647 7.97 16.6447 8.01C16.3247 8.05 16.0447 8.22 15.8447 8.49Z"></path></svg>