<svg data-v-5a16c4be="" xmlns="http://www.w3.org/2000/svg" fill="rgb(255, 255, 255)" preserveAspectRatio="xMidYMid meet" width="24" height="24" viewBox="0 0 24 24" class="top-menu__icon icon-gray"><path d="M12 2C16.9 2 20.89 6.02196 20.99 10.9944H21V16.4971C21 17.8778 19.88 18.9983 18.5 18.9983C17.12 18.9983 16 17.8778 16 16.4971V13.4956C16 12.1149 17.12 10.9944 18.5 10.9944C18.4 7.39263 15.52 4.50122 12 4.50122C8.48 4.50122 5.6 7.40264 5.5 10.9944C6.88 10.9944 8 12.1149 8 13.4956V16.4971C8 17.8778 6.88 18.9983 5.5 18.9983C4.12 18.9983 3 17.8778 3 16.4971V10.9944C3.11 6.02196 7.1 2 12 2ZM8.25 20.7494C8.25 20.0587 8.80964 19.4988 9.5 19.4988H14.5C15.1904 19.4988 15.75 20.0587 15.75 20.7494C15.75 21.4401 15.1904 22 14.5 22H9.5C8.80964 22 8.25 21.4401 8.25 20.7494Z"></path></svg>