<svg data-v-5a16c4be="" xmlns="http://www.w3.org/2000/svg" fill="rgb(255, 255, 255)" preserveAspectRatio="xMidYMid meet" width="24" height="24" viewBox="0 0 24 24" class="top-menu__icon icon-gray"><path d="M10.75 9.32635V3.24938H10.76C10.76 2.55972 11.32 2 12.01 2C12.7 2 13.26 2.55972 13.26 3.24938V9.32635L14.59 7.74714C15.03 7.2274 15.82 7.15743 16.35 7.59721C16.87 8.03699 16.94 8.8266 16.5 9.35634L12.96 13.5642L12.81 13.7142C12.28 14.1639 11.49 14.094 11.05 13.5642L7.51001 9.35634C7.06001 8.8266 7.13001 8.03699 7.66001 7.59721C8.19001 7.14744 8.98001 7.2174 9.42001 7.74714L10.75 9.32635ZM19.5 6.20787C19.5 5.51821 20.06 4.95849 20.75 4.95849C21.44 4.95849 22 5.51821 22 6.20787V18.1619C22 20.2809 20.32 22 18.25 22H5.75C3.68 22 2 20.2809 2 18.1619V6.20787C2 5.51821 2.56 4.95849 3.25 4.95849C3.94 4.95849 4.5 5.51821 4.5 6.20787V15.6632C4.5 16.4028 5.06 17.0025 5.75 17.0025H18.25C18.94 17.0025 19.5 16.4028 19.5 15.6632V6.20787ZM10.75 19.4813C10.75 20.1709 11.31 20.7306 12 20.7306C12.69 20.7306 13.25 20.1709 13.25 19.4813C13.25 18.7916 12.69 18.2319 12 18.2319C11.31 18.2319 10.75 18.7916 10.75 19.4813Z"></path></svg>