<svg data-v-2206edac="" xmlns="http://www.w3.org/2000/svg" fill="#ffffff" preserveAspectRatio="xMidYMid meet" width="24" height="24" viewBox="0 0 24 24" class="icon-white"><path d="M20.6423 19.37L17.3301 16.06C18.3808 14.65 19.0112 12.9 19.0112 11.01C19.0112 6.31 15.1987 2.5 10.5056 2.5C5.81251 2.5 2 6.31 2 11C2 15.69 5.81251 19.5 10.5056 19.5C12.4068 19.5 14.148 18.87 15.5589 17.82L18.8711 21.13C19.1113 21.37 19.4315 21.5 19.7517 21.5C20.0719 21.5 20.3921 21.38 20.6323 21.13C21.1226 20.64 21.1226 19.85 20.6323 19.36L20.6423 19.37ZM4.50165 11C4.50165 7.69 7.19342 5 10.5056 5C13.8178 5 16.5095 7.69 16.5095 11C16.5095 14.31 13.8178 17 10.5056 17C7.19342 17 4.50165 14.31 4.50165 11Z"></path></svg>